PathFileType	4	(X/Y/Z)	C:/Users/opensim2020/Desktop/walking_exp_matlab/subject01_walking13_straight_02.trc																																																																																																																												
DataRate	CameraRate	NumFrames	NumMarkers	Units	OrigDataRate	OrigDataStartFrame	OrigNumFrames																																																																																																																								
100	100	4	42	mm	100	1132	172																																																																																																																								
Frame#	Time	LFHD			RFHD			LBHD			RBHD			C7			T10			CLAV			STRN			RBAK			LSHO			LUPA			LELB			LFRM			LWRA			LWRB			LFIN			RSHO			RUPA			RELB			RFRM			RWRA			RWRB			RFIN			LASI			RASI			LPSI			RPSI			LTHI			LKNE			LTIB			LANK			LHEE			LTOE			RTHI			RKNE			RTIB			RANK			RHEE			RTOE			*39			*40			*41		
		X1	Y1	Z1	X2	Y2	Z2	X3	Y3	Z3	X4	Y4	Z4	X5	Y5	Z5	X6	Y6	Z6	X7	Y7	Z7	X8	Y8	Z8	X9	Y9	Z9	X10	Y10	Z10	X11	Y11	Z11	X12	Y12	Z12	X13	Y13	Z13	X14	Y14	Z14	X15	Y15	Z15	X16	Y16	Z16	X17	Y17	Z17	X18	Y18	Z18	X19	Y19	Z19	X20	Y20	Z20	X21	Y21	Z21	X22	Y22	Z22	X23	Y23	Z23	X24	Y24	Z24	X25	Y25	Z25	X26	Y26	Z26	X27	Y27	Z27	X28	Y28	Z28	X29	Y29	Z29	X30	Y30	Z30	X31	Y31	Z31	X32	Y32	Z32	X33	Y33	Z33	X34	Y34	Z34	X35	Y35	Z35	X36	Y36	Z36	X37	Y37	Z37	X38	Y38	Z38	X39	Y39	Z39	X40	Y40	Z40	X41	Y41	Z41	X42	Y42	Z42
																																																																																																																															
44	0.43	-713.35626	1651.15149	-1514.70032	-690.52722	1657.90491	-1404.08911	-829.57233	1611.23767	-1495.86755	-809.19159	1617.39392	-1378.20215	-871.78723	1417.15906	-1453.13245	-910.30139	1123.32727	-1444.42261	-728.88489	1346.69727	-1451.50586	-686.91949	1192.77332	-1461.92981	-928.63428	1219.70532	-1381.39966	-791.05255	1382.64819	-1611.09778	-815.10388	1215.3064	-1716.08484	-800.03162	1069.51721	-1758.00635	-683.1709	1044.7395	-1773.52759	-549.03894	1061.15283	-1742.40369	-567.11707	1012.38104	-1770.94116	-487.12241	1026.30994	-1783.52283	-794.38953	1372.39612	-1300.09424	-896.29333	1189.51892	-1206.47119	-920.66663	1069.43933	-1194.69971	-923.31598	951.1037	-1156.90723	-869.03253	820.96466	-1162.66833	-916.21368	830.9353	-1130.1947	-888.44983	752.91949	-1117.25562	-750.52771	919.12195	-1573.01526	-717.45288	923.92511	-1356.46936	-924.76068	930.82214	-1487.60608	-902.10028	926.90314	-1344.99402	-861.95001	597.36566	-1625.71765	-910.46497	468.22318	-1615.51599	-1046.83069	334.61374	-1618.69788	-1181.17517	159.12964	-1572.64343	-1226.42566	163.3905	-1517.45422	-1095.30212	38.15713	-1579.77332	-676.70691	604.10596	-1285.65942	-618.78223	459.4469	-1312.73352	-633.98431	284.86938	-1303.94128	-608.36292	77.92924	-1341.47705	-652.1532	35.23682	-1390.41187	-465.89911	54.24085	-1347.38367	-702.7677	1691.15723	-1426.18311	-1973.12842	1023.56873	3101.86621	-2012.52954	1021.99438	3140.62524
45	0.44	-700.8728	1651.64075	-1511.9231	-677.69788	1658.11694	-1401.46582	-816.97998	1611.57007	-1492.85413	-796.1228	1617.45605	-1375.23096	-858.28894	1417.04065	-1450.68359	-895.97656	1122.82849	-1443.7511	-715.3432	1346.9248	-1449.31226	-672.97949	1193.1991	-1459.86096	-915.00482	1219.11584	-1379.49329	-777.96094	1382.55261	-1609.1759	-803.43622	1215.38232	-1713.98401	-789.93085	1069.53235	-1756.50867	-673.29138	1044.19116	-1772.03137	-539.24939	1059.92957	-1740.50171	-557.36591	1011.20575	-1769.13306	-477.18042	1025.04858	-1781.40295	-781.03351	1371.56372	-1297.73267	-880.39801	1186.87439	-1204.19727	-903.90259	1066.62769	-1193.22925	-906.67358	948.16498	-1155.84656	-853.38666	817.96686	-1162.58093	-900.49268	828.01935	-1129.66138	-873.17957	750.01349	-1117.30481	-734.84009	918.24225	-1571.24731	-702.77899	923.60834	-1355.05042	-909.78516	929.76605	-1488.0011	-887.65424	926.84943	-1344.47888	-843.51056	595.65527	-1625.06946	-891.20874	466.633	-1616.15564	-1031.05627	336.79764	-1619.18896	-1170.58496	165.88599	-1574.30505	-1214.36621	172.85727	-1518.54663	-1094.87036	38.27564	-1579.97498	-665.85425	603.61243	-1283.31213	-604.44507	460.77332	-1312.89575	-620.71082	286.1236	-1301.72266	-604.18939	77.75971	-1340.91162	-650.65826	36.55066	-1389.06372	-462.68332	47.3096	-1349.94348	-689.99731	1691.84692	-1423.2666	-1972.94836	1023.90198	3102.00879	-2012.52844	1022.11566	3140.57642
46	0.45	-688.32739	1652.01819	-1509.2605	-664.62054	1658.29248	-1398.82654	-804.29108	1611.92358	-1489.73914	-782.96716	1617.53564	-1372.14771	-844.6413	1417.08777	-1448.45728	-881.78632	1122.37305	-1443.16748	-702.00793	1347.33594	-1447.36145	-658.95184	1193.69385	-1457.93677	-901.35468	1218.75061	-1377.55786	-764.76697	1382.66809	-1607.25598	-792.00757	1215.85059	-1712.03674	-780.29175	1069.9552	-1754.94751	-663.77148	1043.36731	-1770.28967	-529.79053	1058.01501	-1738.54272	-548.12445	1009.44495	-1767.30603	-467.84607	1022.92871	-1779.25061	-767.93555	1370.98047	-1295.79651	-864.17993	1184.60657	-1201.98877	-886.64221	1064.09436	-1191.9397	-889.68976	945.66138	-1155.05701	-837.08893	815.07544	-1162.63635	-883.82611	825.44354	-1129.26233	-857.04401	747.31427	-1117.38489	-719.34125	917.41711	-1569.22766	-688.44171	923.78864	-1353.54797	-894.9527	928.82507	-1488.49316	-873.83392	927.34442	-1344.28601	-823.77905	593.87946	-1624.49231	-870.18866	464.6618	-1616.77148	-1014.00616	339.6149	-1619.65186	-1158.67969	172.99739	-1575.79285	-1199.83203	182.60136	-1518.95166	-1094.81262	38.42043	-1580.02307	-655.2077	603.30304	-1282.95984	-590.91107	461.34482	-1313.4292	-608.68018	287.10654	-1300.64197	-601.26202	77.7662	-1341.46167	-649.47845	37.27169	-1388.98047	-460.63306	44.05576	-1350.21631	-676.99963	1692.2312	-1420.48914	-1973.16907	1023.53223	3101.88696	-2012.51672	1022.10455	3140.72485
47	0.46	-675.79755	1652.36951	-1506.55164	-651.60327	1658.34155	-1396.27612	-791.65149	1612.15881	-1486.63708	-769.7959	1617.43921	-1369.1936	-831.10229	1417.04846	-1446.38806	-868.0199	1122.09595	-1442.52002	-688.59167	1347.68726	-1445.52234	-644.89996	1194.14771	-1456.22583	-887.69385	1218.41895	-1375.84021	-751.53693	1382.96204	-1605.31348	-780.73608	1216.3479	-1709.93433	-770.94519	1070.41858	-1753.07019	-654.78308	1042.44006	-1768.39893	-520.74799	1055.44397	-1736.49963	-539.51984	1007.19299	-1765.47705	-458.97086	1019.91516	-1777.00952	-754.48779	1370.53442	-1293.90723	-847.82581	1182.63672	-1199.96179	-869.11499	1061.92554	-1190.74121	-872.28955	943.66003	-1154.42065	-820.28644	812.79095	-1162.67615	-866.79358	823.17505	-1128.66907	-840.32831	744.90259	-1117.64075	-703.91486	916.61884	-1566.90222	-674.61102	924.51044	-1352.13672	-880.34131	928.13654	-1488.97815	-860.17834	928.14606	-1344.35291	-803.08832	591.69385	-1623.97546	-847.71082	462.49658	-1617.49341	-995.79132	342.74567	-1620.02563	-1145.25525	179.84637	-1577.36584	-1183.58337	192.12489	-1519.25403	-1093.12488	39.45603	-1579.95288	-642.92517	603.46802	-1283.22119	-578.5744	460.79282	-1313.53662	-598.26819	285.68494	-1299.85205	-599.87628	77.7258	-1342.1084	-648.54865	37.74638	-1389.46265	-459.61731	41.62953	-1349.06946	-664.15027	1692.15283	-1417.82935	-1973.177	1023.47827	3101.96997	-2012.47864	1022.1524	3140.73145
